<svg width="18" height="18" viewBox="0 0 18 18" fill="none" xmlns="http://www.w3.org/2000/svg">
<path d="M5.70237 6.91678L12.6468 8.84575L10.0187 13.2263C10.0187 13.2263 10.0187 13.2263 10.0187 13.2263C9.96564 13.3147 9.93762 13.4159 9.93762 13.5189C9.93762 15.4936 11.544 17.1 13.5188 17.1C15.4935 17.1 17.0999 15.4936 17.0999 13.5189C17.0999 13.4158 17.0719 13.3147 17.0189 13.2263L16.9331 13.2778L17.0189 13.2263L14.7397 9.42707L16.379 9.88245C16.4298 9.89656 16.4811 9.90332 16.5315 9.90332C16.7806 9.90332 17.0093 9.73854 17.0793 9.48669L17.0793 9.48666C17.1633 9.18403 16.9862 8.87052 16.6835 8.78646L13.6657 7.94823L9.56887 6.81024V1.57823C9.56887 1.43941 9.54381 1.27343 9.45924 1.13884C9.37047 0.99756 9.22132 0.900031 9.00012 0.900031C8.87752 0.900031 8.77543 0.931014 8.6931 0.98728C8.61142 1.04311 8.55559 1.11943 8.51759 1.20031C8.44311 1.35885 8.43137 1.54749 8.43137 1.6798V6.49427L4.62843 5.43791L1.62123 4.60258C1.31862 4.51847 1.00507 4.69571 0.920979 4.99835L0.920973 4.99837C0.836956 5.30101 1.01409 5.61451 1.31678 5.69858C1.31678 5.69858 1.31679 5.69858 1.31679 5.69858L3.60943 6.33543L0.981377 10.7159C0.981371 10.7159 0.981365 10.7159 0.981359 10.716C0.928327 10.8043 0.900299 10.9054 0.90036 11.0085C0.90036 11.0085 0.90036 11.0085 0.90036 11.0086L1.00036 11.0085C1.0003 11.9384 1.36239 12.8125 2.01992 13.4701C2.67748 14.1276 3.55167 14.4897 4.48151 14.4897C6.401 14.4897 7.96266 12.9281 7.96266 11.0086C7.96266 10.9236 7.93953 10.8402 7.89584 10.7674L5.70237 6.91678ZM15.8951 14.0876C15.6381 15.1616 14.6702 15.9625 13.5188 15.9625C12.3674 15.9625 11.3995 15.1616 11.1425 14.0876H15.8951ZM11.5108 12.9501L13.5188 9.6032L15.5267 12.9501H11.5108ZM6.48948 10.4398H2.47347L4.48151 7.09287L6.48948 10.4398ZM4.48145 13.4522C3.33007 13.4522 2.36217 12.6513 2.10507 11.5773H6.85785C6.60075 12.6513 5.6328 13.4522 4.48145 13.4522Z" fill="#003466" stroke="#003466" stroke-width="0.2"/>
</svg>
